HIERARCHY
ROOT ui
{
	 OFFSET 0 0 0
	 CHANNELS 3 XPosition YPosition Z Position
	 EndSite
	 {
	 OFFSET 0 -1 0
	 }
}
ROOT li
{
	 OFFSET 0 0 0
	 CHANNELS 3 XPosition YPosition Z Position
	 EndSite
	 {
	 OFFSET 0 -1 0
	 }
}
ROOT ul
{
	 OFFSET 0 0 0
	 CHANNELS 3 XPosition YPosition Z Position
	 EndSite
	 {
	 OFFSET 0 -1 0
	 }
}
ROOT ll
{
	 OFFSET 0 0 0
	 CHANNELS 3 XPosition YPosition Z Position
	 EndSite
	 {
	 OFFSET 0 -1 0
	 }
}
ROOT tt
{
	 OFFSET 0 0 0
	 CHANNELS 3 XPosition YPosition Z Position
	 EndSite
	 {
	 OFFSET 0 -1 0
	 }
}
ROOT tb
{
	 OFFSET 0 0 0
	 CHANNELS 3 XPosition YPosition Z Position
	 EndSite
	 {
	 OFFSET 0 -1 0
	 }
}
ROOT td
{
	 OFFSET 0 0 0
	 CHANNELS 3 XPosition YPosition Z Position
	 EndSite
	 {
	 OFFSET 0 -1 0
	 }
}
ROOT v
{
	 OFFSET 0 0 0
	 CHANNELS 3 XPosition YPosition Z Position
	 EndSite
	 {
	 OFFSET 0 -1 0
	 }
}
ROOT bn
{
	 OFFSET 0 0 0
	 CHANNELS 3 XPosition YPosition Z Position
	 EndSite
	 {
	 OFFSET 0 -1 0
	 }
}
MOTION
Frames: 21
Frame Time: 0.002
-0.002823793888092041	-0.002418755054473877	0		0.5777034912109374	-2.585693359375	0		-1.2938248291015626	0.08733811187744141	0		-0.5445443115234375	-2.92702734375	0		2.4782744140625	-1.7308167724609376	0		3.707165771484375	-0.5177189331054688	0		4.99719482421875	0.050585048675537106	0		5.95266064453125	0.44679339599609375	0		-0.38107879638671877	5.8806337890625	0		
-0.0028738620281219484	-0.0025857579708099365	0		0.5778082885742187	-2.58582568359375	0		-1.2538831787109375	0.0866081085205078	0		-0.5104700622558593	-2.931639404296875	0		2.4366953125	-1.7003272705078125	0		3.725387939453125	-0.49788348388671877	0		4.9760947265625	0.04697306060791016	0		5.94604150390625	0.41444964599609374	0		-0.3483990478515625	5.88704296875	0		
-0.002917484998703003	-0.002755820035934448	0		0.5560092163085938	-2.57869482421875	0		-1.280785400390625	0.09868661499023437	0		-0.5643060302734375	-2.9291884765625	0		2.4269013671875	-1.6882279052734375	0		3.69352197265625	-0.48543936157226564	0		4.97012109375	0.05318022918701172	0		5.95259423828125	0.4474716796875	0		-0.3828736877441406	5.8812626953125	0		
8.15109983086586E-5	3.318899869918823E-5	0		0.5831298828125	-2.579159423828125	0		-1.248674560546875	0.11104728698730469	0		-0.5241405639648438	-2.927878662109375	0		2.405343017578125	-1.6569901123046875	0		3.66498583984375	-0.4460395202636719	0		4.95535791015625	0.07649203491210937	0		5.9419560546875	0.4654241638183594	0		-0.3691436767578125	5.8918955078125	0		
0.004087625980377197	0.0028047699928283694	0		0.5743681030273438	-2.57019677734375	0		-1.2487109375	0.11078972625732422	0		-0.535880615234375	-2.91894873046875	0		2.39570361328125	-1.6329039306640625	0		3.64797314453125	-0.44679010009765624	0		4.93734912109375	0.07883292388916016	0		5.9490673828125	0.4655462341308594	0		-0.384643798828125	5.8828720703125	0		
-0.0030045480728149413	-0.003298640012741089	0		0.5984424438476562	-2.57563427734375	0		-1.2146817626953126	0.11512152099609375	0		-0.5337001953125	-2.917192626953125	0		2.335261962890625	-1.5922225341796874	0		3.648312255859375	-0.418757080078125	0		4.92833544921875	0.08005349731445313	0		5.9525341796875	0.4484537353515625	0		-0.38502349853515627	5.88266162109375	0		
-0.0030164809226989747	-0.003494178056716919	0		0.5726087646484375	-2.573486572265625	0		-1.26062646484375	0.12139797973632813	0		-0.5226463012695313	-2.92654931640625	0		2.328652587890625	-1.5661981201171875	0		3.594470703125	-0.4060975036621094	0		4.90950927734375	0.0963746337890625	0		5.93810107421875	0.41627520751953123	0		-0.3532926330566406	5.89006396484375	0		
-0.003018467903137207	-0.003698383092880249	0		0.5758123168945313	-2.568693603515625	0		-1.2456131591796875	0.12294512939453126	0		-0.551373291015625	-2.917442138671875	0		2.28913134765625	-1.5328004150390624	0		3.573740478515625	-0.38485028076171873	0		4.885609375	0.10573312377929688	0		5.93826953125	0.45111187744140624	0		-0.38671148681640627	5.88322900390625	0		
0.00710745620727539	0.0059708008766174315	0		0.5321275024414063	-2.554360107421875	0		-1.2765146484375	0.13102792358398438	0		-0.5101505737304688	-2.913165771484375	0		2.287610595703125	-1.4998681640625	0		3.5758642578125	-0.376893798828125	0		4.87561376953125	0.10590177154541015	0		5.9553427734375	0.44043807983398436	0		-0.38603216552734376	5.8819833984375	0		
0.004082640171051025	0.001785212993621826	0		0.5702633666992187	-2.555998291015625	0		-1.25432568359375	0.14548480224609375	0		-0.54596826171875	-2.911992431640625	0		2.21912109375	-1.4641715087890625	0		3.540269287109375	-0.3455174865722656	0		4.856818359375	0.12214588928222657	0		5.94193310546875	0.46690936279296874	0		-0.4024093017578125	5.87293017578125	0		
0.004118006229400634	0.001555433988571167	0		0.53555712890625	-2.543796142578125	0		-1.259343017578125	0.1412561340332031	0		-0.5326034545898437	-2.8953994140625	0		2.185597412109375	-1.4319072265625	0		3.50721826171875	-0.3542019348144531	0		4.84072119140625	0.1113238525390625	0		5.93102001953125	0.41711892700195313	0		-0.40361795043945314	5.874693359375	0		
-0.0029025030136108397	-0.004602304935455322	0		0.5616715698242187	-2.54731494140625	0		-1.2542540283203125	0.1449078369140625	0		-0.565378173828125	-2.8902783203125	0		2.14404248046875	-1.402573974609375	0		3.480607177734375	-0.32598922729492186	0		4.8088720703125	0.12064942169189453	0		5.93835302734375	0.45151824951171876	0		-0.3707384338378906	5.88005517578125	0		
-0.002841417074203491	-0.00485200023651123	0		0.522834228515625	-2.5460947265625	0		-1.2541981201171875	0.14461512756347655	0		-0.5363585205078125	-2.902881591796875	0		2.13154541015625	-1.3686019287109374	0		3.480679443359375	-0.32611920166015623	0		4.79402197265625	0.12873786926269531	0		5.94087890625	0.37351788330078123	0		-0.3756943969726563	5.895849609375	0		
0.0024037590026855468	0.009829269409179688	0		0.5690668334960938	-2.53887109375	0		-1.2409921875	0.15616952514648438	0		-0.575971923828125	-2.88269677734375	0		2.08907373046875	-1.3323094482421876	0		3.44612060546875	-0.2948808898925781	0		4.785091796875	0.12871516418457032	0		5.93844873046875	0.45128158569335936	0		-0.37677462768554687	5.89659033203125	0		
0.0043833541870117185	5.362769961357117E-4	0		0.5692026977539062	-2.5391298828125	0		-1.2068681640625	0.15948185729980469	0		-0.5028683166503907	-2.886819091796875	0		2.06761181640625	-1.2952862548828126	0		3.432211181640625	-0.2949193420410156	0		4.75822021484375	0.13285365295410156	0		5.93121240234375	0.41662860107421873	0		-0.39291534423828123	5.88749658203125	0		
4.4271400570869445E-4	-0.0026994318962097166	0		0.559432373046875	-2.530290283203125	0		-1.246762451171875	0.16064431762695314	0		-0.5336558227539062	-2.87975146484375	0		2.038114501953125	-1.2611995849609374	0		3.411551025390625	-0.2739180297851562	0		4.73440576171875	0.14090704345703126	0		5.93857568359375	0.45067031860351564	0		-0.38808026123046874	5.8711533203125	0		
-0.007442873954772949	-0.0019019210338592529	0		0.5595443725585938	-2.53058251953125	0		-1.128679931640625	0.15798970031738283	0		-0.5413926391601562	-2.866956787109375	0		2.00246533203125	-1.240073974609375	0		3.39370166015625	-0.26999285888671876	0		4.71637060546875	0.12883827209472656	0		5.92422900390625	0.41773016357421877	0		-0.4079299011230469	5.8770869140625	0		
6.550830006599426E-4	-0.0033013529777526857	0		0.5117579040527344	-2.52034228515625	0		-1.241515625	0.1629871826171875	0		-0.5813424682617188	-2.87080126953125	0		1.956008056640625	-1.20185546875	0		3.342009033203125	-0.25272344970703126	0		4.68765576171875	0.14383584594726562	0		5.92374951171875	0.4500262145996094	0		-0.40778604125976564	5.87678173828125	0		
0.007851972103118896	0.0032963900566101074	0		0.5449014282226563	-2.5150517578125	0		-1.1882615966796874	0.17407493591308593	0		-0.5022305908203125	-2.868022705078125	0		1.9455552978515624	-1.163083740234375	0		3.359166748046875	-0.2492938690185547	0		4.67777587890625	0.14355500793457032	0		5.93725244140625	0.4212493896484375	0		-0.3924614562988281	5.88629345703125	0		
-1.3047000393271447E-5	0.004053407192230225	0		0.498168212890625	-2.4968603515625	0		-1.2340733642578126	0.17930184936523438	0		-0.5928779907226562	-2.84129638671875	0		1.9199951171875	-1.1331724853515626	0		3.315551025390625	-0.22621205139160155	0		4.6599267578125	0.14530323791503907	0		5.92880615234375	0.42582366943359373	0		-0.40828497314453127	5.877154296875	0		
0.001021725058555603	-0.0043068408966064455	0		0.5481174926757812	-2.504806396484375	0		-1.2108714599609376	0.18473233032226563	0		-0.5198853149414062	-2.844468017578125	0		1.8815107421875	-1.0961448974609376	0		3.2865908203125	-0.23334950256347656	0		4.633095703125	0.14809153747558593	0		5.9288955078125	0.42483169555664063	0		-0.4089140319824219	5.87883203125	0		
